<mxfile host="app.diagrams.net" modified="2024-01-03T01:05:31.553Z" agent="Mozilla/5.0 (Windows NT 10.0; Win64; x64) AppleWebKit/537.36 (KHTML, like Gecko) Chrome/120.0.0.0 Safari/537.36" etag="KbzPSdDh-orwZAR2Chza" version="22.1.16" type="github">
  <diagram name="第 1 页" id="ggD6p2E49yRDR5znBVVN">
    <mxGraphModel dx="1674" dy="746" grid="1" gridSize="10" guides="1" tooltips="1" connect="1" arrows="1" fold="1" page="1" pageScale="1" pageWidth="827" pageHeight="1169" math="0" shadow="0">
      <root>
        <mxCell id="0" />
        <mxCell id="1" parent="0" />
        <mxCell id="IVlLuyBhWJttLb8TtJzo-1" value="" style="rounded=0;whiteSpace=wrap;html=1;" vertex="1" parent="1">
          <mxGeometry x="110" y="270" width="520" height="260" as="geometry" />
        </mxCell>
        <mxCell id="IVlLuyBhWJttLb8TtJzo-2" value="判定点位在围栏内或外的基础算法" style="rounded=0;whiteSpace=wrap;html=1;" vertex="1" parent="1">
          <mxGeometry x="130" y="430" width="480" height="80" as="geometry" />
        </mxCell>
        <mxCell id="IVlLuyBhWJttLb8TtJzo-3" value="进围栏判定" style="rounded=0;whiteSpace=wrap;html=1;" vertex="1" parent="1">
          <mxGeometry x="130" y="320" width="100" height="60" as="geometry" />
        </mxCell>
        <mxCell id="IVlLuyBhWJttLb8TtJzo-4" value="出围栏判定" style="rounded=0;whiteSpace=wrap;html=1;" vertex="1" parent="1">
          <mxGeometry x="260" y="320" width="100" height="60" as="geometry" />
        </mxCell>
        <mxCell id="IVlLuyBhWJttLb8TtJzo-5" value="进出围栏判定" style="rounded=0;whiteSpace=wrap;html=1;" vertex="1" parent="1">
          <mxGeometry x="400" y="320" width="90" height="60" as="geometry" />
        </mxCell>
        <mxCell id="IVlLuyBhWJttLb8TtJzo-6" value="围栏驻停判定" style="rounded=0;whiteSpace=wrap;html=1;" vertex="1" parent="1">
          <mxGeometry x="520" y="320" width="90" height="60" as="geometry" />
        </mxCell>
      </root>
    </mxGraphModel>
  </diagram>
</mxfile>
